<mxfile host="app.diagrams.net" modified="2023-12-03T13:18:24.212Z" agent="Mozilla/5.0 (Macintosh; Intel Mac OS X 10_15_7) AppleWebKit/605.1.15 (KHTML, like Gecko) Version/15.6.1 Safari/605.1.15" etag="TOZELuMbdjFlSlSaIYeo" version="22.1.5" type="device">
  <diagram name="Page-1" id="eHTYPe4pWCuQPj3wIXlb">
    <mxGraphModel dx="794" dy="473" grid="1" gridSize="10" guides="1" tooltips="1" connect="1" arrows="1" fold="1" page="1" pageScale="1" pageWidth="827" pageHeight="1169" math="0" shadow="0">
      <root>
        <mxCell id="0" />
        <mxCell id="1" parent="0" />
        <mxCell id="UTab30OcVN0xGBNCb3wA-1" value="&lt;font style=&quot;font-size: 24px;&quot;&gt;0&lt;/font&gt;" style="rounded=0;whiteSpace=wrap;html=1;strokeWidth=2;" vertex="1" parent="1">
          <mxGeometry x="320" y="200" width="40" height="40" as="geometry" />
        </mxCell>
        <mxCell id="UTab30OcVN0xGBNCb3wA-2" value="&lt;font style=&quot;font-size: 24px;&quot;&gt;1&lt;/font&gt;" style="rounded=0;whiteSpace=wrap;html=1;strokeWidth=2;" vertex="1" parent="1">
          <mxGeometry x="350" y="230" width="40" height="40" as="geometry" />
        </mxCell>
        <mxCell id="UTab30OcVN0xGBNCb3wA-3" value="&lt;font style=&quot;font-size: 24px;&quot;&gt;0&lt;/font&gt;" style="rounded=0;whiteSpace=wrap;html=1;strokeWidth=2;" vertex="1" parent="1">
          <mxGeometry x="380" y="260" width="40" height="40" as="geometry" />
        </mxCell>
        <mxCell id="UTab30OcVN0xGBNCb3wA-4" value="&lt;font style=&quot;font-size: 24px;&quot;&gt;0&lt;/font&gt;" style="rounded=0;whiteSpace=wrap;html=1;strokeWidth=2;" vertex="1" parent="1">
          <mxGeometry x="410" y="290" width="40" height="40" as="geometry" />
        </mxCell>
        <mxCell id="UTab30OcVN0xGBNCb3wA-5" value="&lt;font style=&quot;font-size: 24px;&quot;&gt;0&lt;/font&gt;" style="rounded=0;whiteSpace=wrap;html=1;strokeWidth=2;" vertex="1" parent="1">
          <mxGeometry x="280" y="200" width="40" height="40" as="geometry" />
        </mxCell>
        <mxCell id="UTab30OcVN0xGBNCb3wA-6" value="&lt;font style=&quot;font-size: 24px;&quot;&gt;0&lt;/font&gt;" style="rounded=0;whiteSpace=wrap;html=1;strokeWidth=2;" vertex="1" parent="1">
          <mxGeometry x="310" y="230" width="40" height="40" as="geometry" />
        </mxCell>
        <mxCell id="UTab30OcVN0xGBNCb3wA-7" value="&lt;font style=&quot;font-size: 24px;&quot;&gt;1&lt;/font&gt;" style="rounded=0;whiteSpace=wrap;html=1;strokeWidth=2;" vertex="1" parent="1">
          <mxGeometry x="340" y="260" width="40" height="40" as="geometry" />
        </mxCell>
        <mxCell id="UTab30OcVN0xGBNCb3wA-8" value="&lt;font style=&quot;font-size: 24px;&quot;&gt;1&lt;/font&gt;" style="rounded=0;whiteSpace=wrap;html=1;strokeWidth=2;" vertex="1" parent="1">
          <mxGeometry x="370" y="290" width="40" height="40" as="geometry" />
        </mxCell>
        <mxCell id="UTab30OcVN0xGBNCb3wA-9" value="&lt;font style=&quot;font-size: 24px;&quot;&gt;0&lt;/font&gt;" style="rounded=0;whiteSpace=wrap;html=1;strokeWidth=2;" vertex="1" parent="1">
          <mxGeometry x="240" y="200" width="40" height="40" as="geometry" />
        </mxCell>
        <mxCell id="UTab30OcVN0xGBNCb3wA-10" value="&lt;font style=&quot;font-size: 24px;&quot;&gt;0&lt;/font&gt;" style="rounded=0;whiteSpace=wrap;html=1;strokeWidth=2;" vertex="1" parent="1">
          <mxGeometry x="270" y="230" width="40" height="40" as="geometry" />
        </mxCell>
        <mxCell id="UTab30OcVN0xGBNCb3wA-11" value="&lt;font style=&quot;font-size: 24px;&quot;&gt;1&lt;br&gt;&lt;/font&gt;" style="rounded=0;whiteSpace=wrap;html=1;strokeWidth=2;" vertex="1" parent="1">
          <mxGeometry x="300" y="260" width="40" height="40" as="geometry" />
        </mxCell>
        <mxCell id="UTab30OcVN0xGBNCb3wA-12" value="&lt;font style=&quot;font-size: 24px;&quot;&gt;0&lt;/font&gt;" style="rounded=0;whiteSpace=wrap;html=1;strokeWidth=2;" vertex="1" parent="1">
          <mxGeometry x="330" y="290" width="40" height="40" as="geometry" />
        </mxCell>
        <mxCell id="UTab30OcVN0xGBNCb3wA-13" value="&lt;font style=&quot;font-size: 24px;&quot;&gt;0&lt;/font&gt;" style="rounded=0;whiteSpace=wrap;html=1;strokeWidth=2;" vertex="1" parent="1">
          <mxGeometry x="200" y="200" width="40" height="40" as="geometry" />
        </mxCell>
        <mxCell id="UTab30OcVN0xGBNCb3wA-14" value="&lt;font style=&quot;font-size: 24px;&quot;&gt;0&lt;/font&gt;" style="rounded=0;whiteSpace=wrap;html=1;strokeWidth=2;" vertex="1" parent="1">
          <mxGeometry x="230" y="230" width="40" height="40" as="geometry" />
        </mxCell>
        <mxCell id="UTab30OcVN0xGBNCb3wA-15" value="&lt;font style=&quot;font-size: 24px;&quot;&gt;0&lt;/font&gt;" style="rounded=0;whiteSpace=wrap;html=1;strokeWidth=2;" vertex="1" parent="1">
          <mxGeometry x="260" y="260" width="40" height="40" as="geometry" />
        </mxCell>
        <mxCell id="UTab30OcVN0xGBNCb3wA-16" value="&lt;font style=&quot;font-size: 24px;&quot;&gt;1&lt;/font&gt;" style="rounded=0;whiteSpace=wrap;html=1;strokeWidth=2;" vertex="1" parent="1">
          <mxGeometry x="290" y="290" width="40" height="40" as="geometry" />
        </mxCell>
        <mxCell id="UTab30OcVN0xGBNCb3wA-22" style="edgeStyle=orthogonalEdgeStyle;rounded=0;orthogonalLoop=1;jettySize=auto;html=1;exitX=0.5;exitY=1;exitDx=0;exitDy=0;entryX=0.5;entryY=0;entryDx=0;entryDy=0;strokeWidth=2;" edge="1" parent="1" source="UTab30OcVN0xGBNCb3wA-17" target="UTab30OcVN0xGBNCb3wA-13">
          <mxGeometry relative="1" as="geometry" />
        </mxCell>
        <mxCell id="UTab30OcVN0xGBNCb3wA-17" value="&lt;font style=&quot;font-size: 12px;&quot;&gt;&lt;b&gt;0001&lt;/b&gt;&lt;/font&gt;" style="rounded=0;whiteSpace=wrap;html=1;strokeWidth=2;" vertex="1" parent="1">
          <mxGeometry x="200" y="120" width="40" height="40" as="geometry" />
        </mxCell>
        <mxCell id="UTab30OcVN0xGBNCb3wA-23" style="edgeStyle=orthogonalEdgeStyle;rounded=0;orthogonalLoop=1;jettySize=auto;html=1;exitX=0.5;exitY=1;exitDx=0;exitDy=0;entryX=0.5;entryY=0;entryDx=0;entryDy=0;strokeWidth=2;" edge="1" parent="1" source="UTab30OcVN0xGBNCb3wA-18" target="UTab30OcVN0xGBNCb3wA-9">
          <mxGeometry relative="1" as="geometry" />
        </mxCell>
        <mxCell id="UTab30OcVN0xGBNCb3wA-18" value="&lt;font style=&quot;font-size: 12px;&quot;&gt;&lt;b&gt;0010&lt;/b&gt;&lt;/font&gt;" style="rounded=0;whiteSpace=wrap;html=1;strokeWidth=2;" vertex="1" parent="1">
          <mxGeometry x="240" y="120" width="40" height="40" as="geometry" />
        </mxCell>
        <mxCell id="UTab30OcVN0xGBNCb3wA-24" style="edgeStyle=orthogonalEdgeStyle;rounded=0;orthogonalLoop=1;jettySize=auto;html=1;exitX=0.5;exitY=1;exitDx=0;exitDy=0;entryX=0.5;entryY=0;entryDx=0;entryDy=0;strokeWidth=2;" edge="1" parent="1" source="UTab30OcVN0xGBNCb3wA-19" target="UTab30OcVN0xGBNCb3wA-5">
          <mxGeometry relative="1" as="geometry" />
        </mxCell>
        <mxCell id="UTab30OcVN0xGBNCb3wA-19" value="&lt;font style=&quot;font-size: 12px;&quot;&gt;&lt;b&gt;0011&lt;/b&gt;&lt;/font&gt;" style="rounded=0;whiteSpace=wrap;html=1;strokeWidth=2;" vertex="1" parent="1">
          <mxGeometry x="280" y="120" width="40" height="40" as="geometry" />
        </mxCell>
        <mxCell id="UTab30OcVN0xGBNCb3wA-25" style="edgeStyle=orthogonalEdgeStyle;rounded=0;orthogonalLoop=1;jettySize=auto;html=1;exitX=0.5;exitY=1;exitDx=0;exitDy=0;entryX=0.5;entryY=0;entryDx=0;entryDy=0;strokeWidth=2;" edge="1" parent="1" source="UTab30OcVN0xGBNCb3wA-20" target="UTab30OcVN0xGBNCb3wA-1">
          <mxGeometry relative="1" as="geometry" />
        </mxCell>
        <mxCell id="UTab30OcVN0xGBNCb3wA-20" value="&lt;font style=&quot;font-size: 12px;&quot;&gt;&lt;b&gt;0100&lt;/b&gt;&lt;/font&gt;" style="rounded=0;whiteSpace=wrap;html=1;strokeWidth=2;" vertex="1" parent="1">
          <mxGeometry x="320" y="120" width="40" height="40" as="geometry" />
        </mxCell>
        <mxCell id="UTab30OcVN0xGBNCb3wA-21" value="&lt;font style=&quot;font-size: 12px;&quot;&gt;&lt;b&gt;...&lt;/b&gt;&lt;/font&gt;" style="rounded=0;whiteSpace=wrap;html=1;strokeWidth=2;" vertex="1" parent="1">
          <mxGeometry x="360" y="120" width="40" height="40" as="geometry" />
        </mxCell>
        <mxCell id="UTab30OcVN0xGBNCb3wA-26" value="&lt;b&gt;Color 1&lt;/b&gt;" style="text;html=1;strokeColor=none;fillColor=none;align=center;verticalAlign=middle;whiteSpace=wrap;rounded=0;" vertex="1" parent="1">
          <mxGeometry x="130" y="205" width="70" height="30" as="geometry" />
        </mxCell>
        <mxCell id="UTab30OcVN0xGBNCb3wA-27" value="&lt;b&gt;Color 2&lt;/b&gt;" style="text;html=1;strokeColor=none;fillColor=none;align=center;verticalAlign=middle;whiteSpace=wrap;rounded=0;" vertex="1" parent="1">
          <mxGeometry x="160" y="235" width="70" height="30" as="geometry" />
        </mxCell>
        <mxCell id="UTab30OcVN0xGBNCb3wA-28" value="&lt;b&gt;Color 3&lt;/b&gt;" style="text;html=1;strokeColor=none;fillColor=none;align=center;verticalAlign=middle;whiteSpace=wrap;rounded=0;" vertex="1" parent="1">
          <mxGeometry x="190" y="265" width="70" height="30" as="geometry" />
        </mxCell>
        <mxCell id="UTab30OcVN0xGBNCb3wA-29" value="&lt;b&gt;Color 4&lt;/b&gt;" style="text;html=1;strokeColor=none;fillColor=none;align=center;verticalAlign=middle;whiteSpace=wrap;rounded=0;" vertex="1" parent="1">
          <mxGeometry x="220" y="295" width="70" height="30" as="geometry" />
        </mxCell>
        <mxCell id="UTab30OcVN0xGBNCb3wA-30" value="&lt;b&gt;MSB&lt;/b&gt;" style="text;html=1;strokeColor=none;fillColor=none;align=center;verticalAlign=middle;whiteSpace=wrap;rounded=0;" vertex="1" parent="1">
          <mxGeometry x="360" y="205" width="60" height="30" as="geometry" />
        </mxCell>
        <mxCell id="UTab30OcVN0xGBNCb3wA-31" value="&lt;b&gt;LSB&lt;/b&gt;" style="text;html=1;strokeColor=none;fillColor=none;align=center;verticalAlign=middle;whiteSpace=wrap;rounded=0;" vertex="1" parent="1">
          <mxGeometry x="450" y="295" width="60" height="30" as="geometry" />
        </mxCell>
        <mxCell id="UTab30OcVN0xGBNCb3wA-32" value="&lt;b&gt;...&lt;br&gt;&lt;/b&gt;" style="text;html=1;strokeColor=none;fillColor=none;align=center;verticalAlign=middle;whiteSpace=wrap;rounded=0;" vertex="1" parent="1">
          <mxGeometry x="390" y="235" width="60" height="30" as="geometry" />
        </mxCell>
        <mxCell id="UTab30OcVN0xGBNCb3wA-33" value="&lt;b&gt;...&lt;br&gt;&lt;/b&gt;" style="text;html=1;strokeColor=none;fillColor=none;align=center;verticalAlign=middle;whiteSpace=wrap;rounded=0;" vertex="1" parent="1">
          <mxGeometry x="420" y="265" width="60" height="30" as="geometry" />
        </mxCell>
        <mxCell id="UTab30OcVN0xGBNCb3wA-34" value="&lt;b&gt;4-bit image data&lt;/b&gt;" style="text;html=1;strokeColor=none;fillColor=none;align=center;verticalAlign=middle;whiteSpace=wrap;rounded=0;" vertex="1" parent="1">
          <mxGeometry x="110" y="125" width="90" height="30" as="geometry" />
        </mxCell>
      </root>
    </mxGraphModel>
  </diagram>
</mxfile>
